<mxfile host="app.diagrams.net" agent="Mozilla/5.0 (X11; Linux x86_64) AppleWebKit/537.36 (KHTML, like Gecko) Chrome/130.0.0.0 Safari/537.36" version="24.8.3" pages="2">
  <diagram name="synchronous-communication-between-modules" id="C0he_J-pm_ArgAbKU8WM">
    <mxGraphModel dx="1434" dy="786" grid="1" gridSize="10" guides="1" tooltips="1" connect="1" arrows="1" fold="1" page="1" pageScale="1" pageWidth="827" pageHeight="1169" math="0" shadow="0">
      <root>
        <mxCell id="0" />
        <mxCell id="1" parent="0" />
        <mxCell id="OlSt-tL-vxAJIuklcm-v-4" value="Module Analayze" style="rounded=0;whiteSpace=wrap;html=1;" vertex="1" parent="1">
          <mxGeometry x="40" y="355" width="190" height="90" as="geometry" />
        </mxCell>
        <mxCell id="OlSt-tL-vxAJIuklcm-v-5" value="Module Dockerize" style="rounded=0;whiteSpace=wrap;html=1;" vertex="1" parent="1">
          <mxGeometry x="540" y="310" width="190" height="190" as="geometry" />
        </mxCell>
        <mxCell id="OlSt-tL-vxAJIuklcm-v-6" value="" style="endArrow=classic;html=1;rounded=0;exitX=1;exitY=0.5;exitDx=0;exitDy=0;entryX=0;entryY=0.5;entryDx=0;entryDy=0;" edge="1" parent="1" source="OlSt-tL-vxAJIuklcm-v-4" target="OlSt-tL-vxAJIuklcm-v-7">
          <mxGeometry width="50" height="50" relative="1" as="geometry">
            <mxPoint x="390" y="430" as="sourcePoint" />
            <mxPoint x="440" y="405" as="targetPoint" />
          </mxGeometry>
        </mxCell>
        <mxCell id="OlSt-tL-vxAJIuklcm-v-7" value="public API" style="rounded=1;whiteSpace=wrap;html=1;" vertex="1" parent="1">
          <mxGeometry x="520" y="330" width="40" height="140" as="geometry" />
        </mxCell>
        <mxCell id="OlSt-tL-vxAJIuklcm-v-8" value="Call API methods" style="text;html=1;align=center;verticalAlign=middle;whiteSpace=wrap;rounded=0;" vertex="1" parent="1">
          <mxGeometry x="330" y="355" width="100" height="30" as="geometry" />
        </mxCell>
        <mxCell id="OlSt-tL-vxAJIuklcm-v-9" value="&lt;b&gt;&lt;font style=&quot;font-size: 14px;&quot;&gt;Synchronous communication&lt;/font&gt;&lt;/b&gt;" style="text;html=1;align=center;verticalAlign=middle;whiteSpace=wrap;rounded=0;" vertex="1" parent="1">
          <mxGeometry x="40" y="270" width="210" height="30" as="geometry" />
        </mxCell>
        <mxCell id="JStcpl62jnUSha_e6oFB-1" value="&lt;h1 style=&quot;margin-top: 0px;&quot;&gt;Benefits&lt;/h1&gt;&lt;p&gt;&lt;/p&gt;&lt;ul&gt;&lt;li&gt;Fast in-memory calls&lt;/li&gt;&lt;li&gt;Easy to implement&lt;/li&gt;&lt;/ul&gt;&lt;p&gt;&lt;/p&gt;" style="text;html=1;whiteSpace=wrap;overflow=hidden;rounded=0;" vertex="1" parent="1">
          <mxGeometry x="45" y="540" width="180" height="120" as="geometry" />
        </mxCell>
        <mxCell id="JStcpl62jnUSha_e6oFB-2" value="&lt;h1 style=&quot;margin-top: 0px;&quot;&gt;Drawbacks&lt;/h1&gt;&lt;p&gt;&lt;/p&gt;&lt;ul&gt;&lt;li&gt;Strong coupling&lt;/li&gt;&lt;/ul&gt;&lt;p&gt;&lt;/p&gt;" style="text;html=1;whiteSpace=wrap;overflow=hidden;rounded=0;" vertex="1" parent="1">
          <mxGeometry x="234" y="540" width="180" height="120" as="geometry" />
        </mxCell>
      </root>
    </mxGraphModel>
  </diagram>
  <diagram id="AnURDCJx1aFeiUqGZCgw" name="Page-2">
    <mxGraphModel grid="1" page="1" gridSize="10" guides="1" tooltips="1" connect="1" arrows="1" fold="1" pageScale="1" pageWidth="827" pageHeight="1169" math="0" shadow="0">
      <root>
        <mxCell id="0" />
        <mxCell id="1" parent="0" />
      </root>
    </mxGraphModel>
  </diagram>
</mxfile>
